<svg 
 xmlns="http://www.w3.org/2000/svg"
 xmlns:xlink="http://www.w3.org/1999/xlink"
 width="32px" height="48px">
<path fill-rule="evenodd"  fill="rgb(255, 255, 255)"
 d="M15.997,47.997 C7.176,47.997 -0.002,41.298 -0.002,33.066 L-0.002,14.812 C-0.002,7.063 6.417,0.613 14.670,-0.005 L17.324,-0.005 C25.580,0.617 31.998,7.068 31.999,14.811 L31.999,33.066 C31.999,41.298 24.821,47.997 15.997,47.997 ZM28.999,15.103 C28.999,8.420 23.166,2.985 15.996,2.985 C8.828,2.985 2.996,8.420 2.996,15.103 L2.996,32.868 C2.996,39.553 8.828,44.987 15.996,44.987 C23.166,44.987 28.999,39.553 28.999,32.868 L28.999,15.103 ZM15.997,22.003 C14.896,22.003 14.002,21.122 14.002,20.037 L14.002,14.971 C14.002,13.884 14.896,13.004 15.997,13.004 C17.100,13.004 17.994,13.884 17.994,14.971 L17.994,20.037 C17.994,21.122 17.099,22.003 15.997,22.003 Z"/>
</svg>