<svg 
 xmlns="http://www.w3.org/2000/svg"
 xmlns:xlink="http://www.w3.org/1999/xlink"
 width="18px" height="18px">
<path fill-rule="evenodd"  fill="rgb(255, 255, 255)"
 d="M17.998,15.995 L15.999,17.995 L10.386,13.084 C9.378,13.646 8.234,13.994 6.999,13.994 C3.132,13.994 -0.001,10.860 -0.001,6.993 C-0.001,3.128 3.132,-0.006 6.999,-0.006 C10.865,-0.006 13.998,3.128 13.998,6.993 C13.998,8.590 13.443,10.044 12.543,11.222 L17.998,15.995 ZM10.999,6.993 C10.999,4.785 9.208,2.994 6.999,2.994 C4.790,2.994 2.998,4.785 2.998,6.993 C2.998,9.203 4.790,10.994 6.999,10.994 C8.200,10.994 9.265,10.453 9.999,9.615 L9.999,8.995 L10.295,9.255 C10.738,8.611 10.999,7.834 10.999,6.993 Z"/>
</svg>